<?xml version="1.0" encoding="UTF-8"?>
<svg id="Vrstva_2" data-name="Vrstva 2" xmlns="http://www.w3.org/2000/svg" viewBox="0 0 2517.31 358.31">
  <g id="Vrstva_1-2" data-name="Vrstva 1">
    <g>
      <path d="M287.03,175.65c.63,90.85-68.65,166.4-160.99,166.75l-125.51.47.18-50.07,118.34-.93c37.87-.3,73.23-21.75,93.65-51.52,30.1-43.88,25.47-102.68-8.14-142.39-20.65-24.4-49.27-39.06-81.1-39.12l-67.13-.12-.21,140.14-56.12.26L.21,6.52l129.4.6c46.6.21,88.97,21.55,118.5,55.52,26.4,33.42,38.62,70.62,38.92,113.01Z"/>
      <polygon points="830.5 6.77 670.17 358.31 510.62 7.45 571.32 6.49 670.51 225.94 769.04 7.17 830.5 6.77"/>
      <path d="M1667.3,345.28c-17.94,6.71-37.34,7.15-56.27,8.11l.25-53.1c23.19,1.92,44.85-4.32,56.37-24.45,9.31-16.29,6.71-41.12-8.77-53.2-32.61-25.42-84.82-18.72-122.53-56.41-26.68-26.65-33.06-65.1-20.33-100.5,11.37-31.66,38.77-55.86,75.8-62.68,44.11-8.11,89.92-.83,125.26,31.5l-37.18,40.41c-24.38-24.57-56.79-30.43-86.31-17.97-18.18,7.68-28.63,26.51-26.88,45.88,1.5,16.63,15.74,33.29,34.3,39.22l67.49,21.58c32.93,10.54,56.32,40.26,60.83,73.34,6.52,47.81-15.17,90.75-62.03,108.27Z"/>
      <polygon points="2517.31 7.1 2402.03 209.29 2401.95 342.78 2344.31 342.82 2344.5 212.22 2228.93 6.86 2292.11 6.59 2372.98 149.5 2454.04 6.76 2517.31 7.1"/>
      <path d="M1356.48,213.22l55.66,130.53-64.81-.28-72.56-176.22,47.24-1.76c26.39-.99,43.17-23.27,44.48-48.85,1.56-30.54-20.86-57.63-52.62-57.84l-86.19-.58-22.47-51.6,125.93,1.57c55.93,4.25,92.9,48.66,93.85,102.44.83,46.5-23.22,85.88-68.51,102.59Z"/>
      <polygon points="2183.97 58.42 2102.74 58.42 2102.67 343.51 2043.14 342.86 2043.05 58.95 1962.07 58.19 1962.13 6.65 2183.91 6.63 2183.97 58.42"/>
      <polygon points="1878.52 6.66 1878.28 342.51 1821.57 343.31 1821.6 6.7 1878.52 6.66"/>
      <polygon points="438.07 6.64 438.04 341.95 381.96 342.48 381.98 6.68 438.07 6.64"/>
      <polygon points="1116.75 58.38 932.13 58.39 907.03 6.62 1116.66 6.7 1116.75 58.38"/>
      <polygon points="1116.68 342.71 905.61 342.61 931.38 292.68 1116.64 292.79 1116.68 342.71"/>
      <polygon points="1090.96 147.59 1090.89 199.03 919.25 199.09 919.28 147.43 1090.96 147.59"/>
    </g>
  </g>
</svg>